Coordinates
version=1
nRows=10
nColumns=33
inDegrees=yes

Units are S.I. units (second, meters, Newtons, ...)
Angles are in degrees.

endheader
time	ground_thorax_rot_x	ground_thorax_rot_y	ground_thorax_rot_z	ground_thorax_tx	ground_thorax_ty	ground_thorax_tz	clav_prot_r	clav_elev_r	scapula_abduction_r	scapula_elevation_r	scapula_upward_rot_r	scapula_winging_r	shoulder_elv_r	plane_of_elev_r	axial_rot_r	elbow_flexion_r	pro_sup_r	wrist_flex_r	wrist_dev_r	clav_prot_l	clav_elev_l	scapula_abduction_l	scapula_elevation_l	scapula_upward_rot_l	scapula_winging_l	shoulder_elv_l	plane_of_elev_l	axial_rot_l	elbow_flexion_l	pro_sup_l	wrist_flex_l	wrist_dev_l
      2.55000000	     25.27899141	     37.81256998	      2.06662622	      0.00844689	      1.00467274	     -0.03773188	    -19.70716089	     34.14392387	    -22.59377518	     24.85874053	     45.00000000	    -10.15631296	     -7.04865806	    -90.00000000	     16.29254053	     74.00147386	     12.35049845	     42.21495544	    -22.32448439	     19.32514453	    -12.50021977	    -45.00000000	      4.79411102	      4.40384523	     18.13781387	     31.21700266	    -51.66450164	    -36.79295085	     73.21480920	     16.19213672	      6.54480883	    -23.37419926
      2.56000000	     25.34897266	     38.07287602	      2.01086916	      0.00812268	      1.00459825	     -0.03757932	    -19.72039896	     34.16035075	    -22.65002771	     24.87146101	     45.00000000	    -10.15409442	     -6.89417657	    -90.00000000	     16.13951340	     74.69176052	     11.02949386	     41.17158781	    -21.04207359	     19.79071784	    -12.87691658	    -45.00000000	      4.54799919	      2.55791927	     18.11254315	     32.39174557	    -49.69839345	    -36.37393280	     73.98927444	     14.83847648	      9.14961185	    -21.47277095
      2.57000000	     25.23510143	     38.20789765	      2.17100002	      0.00832848	      1.00456152	     -0.03777922	    -19.66284291	     34.14184850	    -22.49206987	     24.86316950	     45.00000000	    -10.14119650	     -6.80764516	    -90.00000000	     16.05298883	     74.79330218	     11.01150370	     41.19427944	    -21.05707312	     19.76207592	    -12.94665153	    -45.00000000	      4.64704482	      2.70262720	     18.05553108	     32.42461221	    -49.48586470	    -36.33748307	     74.05975800	     14.81964439	      9.13341672	    -21.48279748
      2.58000000	     25.41559723	     38.46471612	      1.83727002	      0.00796579	      1.00463267	     -0.03763333	    -19.76658623	     33.99959047	    -22.48288513	     24.72131432	     45.00000000	    -10.23115675	     -6.60343154	    -90.00000000	     15.85047414	     75.34156318	      9.48831658	     40.65198583	    -19.90967142	     20.22839578	    -13.42532116	    -45.00000000	      4.45479937	      0.80074768	     17.96782803	     33.81351760	    -47.21472305	    -36.32498565	     74.48760766	     13.47362995	     10.44384322	    -20.10909451
      2.59000000	     25.29859874	     38.59521938	      2.00247318	      0.00819436	      1.00452417	     -0.03784873	    -19.70384113	     33.98063676	    -22.31417357	     24.71305206	     45.00000000	    -10.21749498	     -6.51039022	    -90.00000000	     15.75743893	     75.45134873	      9.47049677	     40.67852058	    -19.92698137	     20.20251306	    -13.49263223	    -45.00000000	      4.55223690	      0.94143565	     17.91317502	     33.83975844	    -47.01246869	    -36.29474859	     74.55850511	     13.45797606	     10.43103483	    -20.12039863
      2.60000000	     25.36884631	     38.75160707	      1.77300390	      0.00789176	      1.00448325	     -0.03782148	    -19.74313140	     33.82461671	    -22.14341564	     24.56793910	     45.00000000	    -10.29069019	     -6.36219472	    -90.00000000	     15.61075788	     75.94835608	      8.05815453	     40.13423296	    -18.90807134	     20.54340052	    -13.79021325	    -45.00000000	      4.33953710	     -0.52714330	     17.88230473	     34.89111391	    -45.06521946	    -36.22066126	     74.88395645	     12.48944076	     11.70977532	    -18.80785957
      2.61000000	     25.25095046	     38.88095251	      1.94058537	      0.00814797	      1.00430056	     -0.03803989	    -19.68108592	     33.80145790	    -21.96988014	     24.55611265	     45.00000000	    -10.27888105	     -6.26333457	    -90.00000000	     15.51190379	     76.05623285	      8.03882201	     40.15868016	    -18.92427014	     20.52061722	    -13.86387300	    -45.00000000	      4.44017455	     -0.39189891	     17.82481148	     34.91329066	    -44.86536939	    -36.19216909	     74.94453984	     12.47481993	     11.69865548	    -18.81652880
      2.62000000	     25.35138690	     39.00334682	      1.73569225	      0.00783617	      1.00420872	     -0.03792772	    -19.69870501	     33.67634885	    -21.80610056	     24.44218161	     45.00000000	    -10.33179415	     -6.06175262	    -90.00000000	     15.31177354	     76.66023732	      6.44352329	     39.39849864	    -17.68133629	     20.90505237	    -14.25246951	    -45.00000000	      4.21847551	     -2.10014240	     17.75696723	     36.04399905	    -42.80406244	    -35.96455465	     75.26380587	     11.42302687	     13.12322441	    -17.46224045
      2.63000000	     25.23158730	     39.13597906	      1.90199255	      0.00810582	      1.00397173	     -0.03813955	    -19.63628854	     33.64765115	    -21.62364862	     24.42500476	     45.00000000	    -10.32238203	     -5.96836750	    -90.00000000	     15.21839515	     76.75583513	      6.42435131	     39.41970190	    -17.69383183	     20.88485391	    -14.34055544	    -45.00000000	      4.33178690	     -1.96588875	     17.69465476	     36.06313570	    -42.59572340	    -35.93638846	     75.30255919	     11.41037646	     13.11211615	    -17.46489701
      2.64000000	     25.32790209	     39.31951226	      1.66332234	      0.00771361	      1.00405825	     -0.03807421	    -19.68993049	     33.46259606	    -21.44523171	     24.25323223	     45.00000000	    -10.41057109	     -5.78542989	    -90.00000000	     15.03692092	     77.22083739	      4.63084568	     38.62545945	    -16.39688064	     21.30593778	    -14.78039230	    -45.00000000	      4.06169721	     -3.93270877	     17.60380972	     37.28318869	    -40.18536257	    -35.53570184	     75.42294601	     10.31435517	     14.62943575	    -16.10738327
